<svg id="visual" viewBox="0 0 2000 300" width="2000" height="300" xmlns="http://www.w3.org/2000/svg" xmlns:xlink="http://www.w3.org/1999/xlink" version="1.1"><path d="M0 141L47.7 130.5C95.3 120 190.7 99 285.8 98.3C381 97.7 476 117.3 571.2 115.7C666.3 114 761.7 91 857 86.7C952.3 82.3 1047.7 96.7 1143 101.7C1238.3 106.7 1333.7 102.3 1428.8 105.8C1524 109.3 1619 120.7 1714.2 119.8C1809.3 119 1904.7 106 1952.3 99.5L2000 93L2000 301L1952.3 301C1904.7 301 1809.3 301 1714.2 301C1619 301 1524 301 1428.8 301C1333.7 301 1238.3 301 1143 301C1047.7 301 952.3 301 857 301C761.7 301 666.3 301 571.2 301C476 301 381 301 285.8 301C190.7 301 95.3 301 47.7 301L0 301Z" fill="#bb595f"></path><path d="M0 151L47.7 143.7C95.3 136.3 190.7 121.7 285.8 122.5C381 123.3 476 139.7 571.2 140.2C666.3 140.7 761.7 125.3 857 118C952.3 110.7 1047.7 111.3 1143 108.7C1238.3 106 1333.7 100 1428.8 102C1524 104 1619 114 1714.2 114.8C1809.3 115.7 1904.7 107.3 1952.3 103.2L2000 99L2000 301L1952.3 301C1904.7 301 1809.3 301 1714.2 301C1619 301 1524 301 1428.8 301C1333.7 301 1238.3 301 1143 301C1047.7 301 952.3 301 857 301C761.7 301 666.3 301 571.2 301C476 301 381 301 285.8 301C190.7 301 95.3 301 47.7 301L0 301Z" fill="#b85257"></path><path d="M0 177L47.7 174C95.3 171 190.7 165 285.8 159.8C381 154.7 476 150.3 571.2 151.7C666.3 153 761.7 160 857 162.7C952.3 165.3 1047.7 163.7 1143 162C1238.3 160.3 1333.7 158.7 1428.8 165.5C1524 172.3 1619 187.7 1714.2 194.2C1809.3 200.7 1904.7 198.3 1952.3 197.2L2000 196L2000 301L1952.3 301C1904.7 301 1809.3 301 1714.2 301C1619 301 1524 301 1428.8 301C1333.7 301 1238.3 301 1143 301C1047.7 301 952.3 301 857 301C761.7 301 666.3 301 571.2 301C476 301 381 301 285.8 301C190.7 301 95.3 301 47.7 301L0 301Z" fill="#b54b4f"></path><path d="M0 215L47.7 212C95.3 209 190.7 203 285.8 207.5C381 212 476 227 571.2 233.5C666.3 240 761.7 238 857 232C952.3 226 1047.7 216 1143 209.2C1238.3 202.3 1333.7 198.7 1428.8 194.5C1524 190.3 1619 185.7 1714.2 187.3C1809.3 189 1904.7 197 1952.3 201L2000 205L2000 301L1952.3 301C1904.7 301 1809.3 301 1714.2 301C1619 301 1524 301 1428.8 301C1333.7 301 1238.3 301 1143 301C1047.7 301 952.3 301 857 301C761.7 301 666.3 301 571.2 301C476 301 381 301 285.8 301C190.7 301 95.3 301 47.7 301L0 301Z" fill="#b24447"></path><path d="M0 253L47.7 249.5C95.3 246 190.7 239 285.8 239.3C381 239.7 476 247.3 571.2 246.8C666.3 246.3 761.7 237.7 857 240C952.3 242.3 1047.7 255.7 1143 261.5C1238.3 267.3 1333.7 265.7 1428.8 264.2C1524 262.7 1619 261.3 1714.2 258.8C1809.3 256.3 1904.7 252.7 1952.3 250.8L2000 249L2000 301L1952.3 301C1904.7 301 1809.3 301 1714.2 301C1619 301 1524 301 1428.8 301C1333.7 301 1238.3 301 1143 301C1047.7 301 952.3 301 857 301C761.7 301 666.3 301 571.2 301C476 301 381 301 285.8 301C190.7 301 95.3 301 47.7 301L0 301Z" fill="#af3c3f"></path></svg>